<svg width="287" height="50" viewBox="0 0 287 50" fill="none" xmlns="http://www.w3.org/2000/svg">
<rect width="50" height="50" rx="25" fill="white"/>
<path d="M31.0534 32.2204C33.3183 35.4798 30.0618 38.8581 26.9009 38.1257C24.4868 37.5651 23.7888 36.2905 22.2401 35.9312C20.6914 35.572 19.5032 36.4087 17.0891 35.8485C13.9292 35.1152 12.4944 30.6469 15.9626 28.7179C20.2724 26.3211 22.2269 22.5018 25.1968 23.1913C28.1668 23.8809 28.2397 28.1699 31.0534 32.2204Z" fill="black"/>
<path d="M36.9466 28.0296C36.1689 30.0263 34.2148 31.1295 32.5824 30.4934C30.9501 29.8573 30.2574 27.7232 31.0353 25.7263C31.9718 23.3229 34.2975 21.2665 35.9299 21.9025C37.5622 22.5386 37.9567 25.4378 36.9466 28.0296Z" fill="black"/>
<path d="M19.3625 16.8539C19.7567 14.1001 21.5271 11.77 23.2614 12.0176C24.9957 12.2652 26.009 15.2021 25.6425 17.7555C25.3377 19.8768 23.6849 21.3946 21.9512 21.1455C20.2175 20.8963 19.058 18.9748 19.3625 16.8539Z" fill="black"/>
<path d="M27.1919 18.1147C27.9872 15.661 30.1895 13.4731 31.8559 14.0135C33.5222 14.554 34.085 17.4251 33.2271 20.0708C32.5665 22.1096 30.679 23.3242 29.0117 22.7837C27.3445 22.2433 26.531 20.1535 27.1919 18.1147Z" fill="black"/>
<path d="M15.3503 26.495C13.605 26.3468 12.3363 24.4958 12.5172 22.3605C12.7522 19.5887 14.3833 17.1598 16.1289 17.3077C17.8745 17.4555 19.0567 20.3277 18.839 22.8962C18.6578 25.0316 17.0959 26.6429 15.3503 26.495Z" fill="black"/>
<path d="M62 36.8232V13.4862H67.6102L67.6985 20.337H68.582C68.9943 18.6575 69.5391 17.2726 70.2165 16.1823C70.8938 15.0626 71.7184 14.2376 72.6902 13.7072C73.6621 13.1473 74.7959 12.8674 76.0917 12.8674C77.4463 12.8674 78.5654 13.1621 79.4489 13.7514C80.3619 14.3112 81.0834 15.151 81.6135 16.2707C82.1436 17.361 82.497 18.7164 82.6737 20.337H83.4246C83.8958 18.5985 84.5143 17.1842 85.28 16.0939C86.0456 14.9742 86.9586 14.1639 88.0188 13.663C89.079 13.1326 90.2275 12.8674 91.4644 12.8674C92.7896 12.8674 93.9382 13.1326 94.91 13.663C95.9113 14.1639 96.7359 14.93 97.3838 15.9613C98.0611 16.9632 98.5618 18.2302 98.8857 19.7624C99.2096 21.2652 99.3716 23.0184 99.3716 25.0221V36.8232H92.2154V25.9061C92.2154 24.3444 92.0828 23.0479 91.8178 22.0166C91.5822 20.9853 91.1993 20.2192 90.6692 19.7182C90.1392 19.1878 89.4618 18.9227 88.6372 18.9227C87.6948 18.9227 86.885 19.232 86.2076 19.8508C85.5597 20.4696 85.0591 21.3389 84.7057 22.4586C84.3523 23.5488 84.1756 24.7864 84.1756 26.1713V36.8232H77.196V26.0387C77.196 24.418 77.0488 23.0921 76.7543 22.0608C76.4892 21.0295 76.0769 20.2486 75.5174 19.7182C74.9873 19.1878 74.31 18.9227 73.4854 18.9227C72.543 18.9227 71.7478 19.232 71.0999 19.8508C70.4521 20.4696 69.9514 21.3389 69.598 22.4586C69.2741 23.5488 69.1121 24.7864 69.1121 26.1713V36.8232H62Z" fill="white"/>
<path d="M112.089 37.442C110.145 37.442 108.408 37.1915 106.876 36.6906C105.345 36.1602 104.035 35.3941 102.945 34.3923C101.885 33.3904 101.075 32.1529 100.515 30.6796C99.9558 29.2063 99.676 27.512 99.676 25.5967C99.676 23.7403 99.9411 22.0313 100.471 20.4696C101.031 18.9079 101.811 17.5672 102.812 16.4475C103.843 15.2983 105.095 14.4144 106.567 13.7956C108.069 13.1768 109.748 12.8674 111.603 12.8674C113.488 12.8674 115.137 13.1768 116.551 13.7956C117.994 14.3849 119.172 15.2689 120.085 16.4475C121.027 17.6262 121.719 19.07 122.161 20.779C122.603 22.4586 122.75 24.3886 122.603 26.5691L104.359 26.7017V22.9889L118.539 22.8564L116.021 24.5801C116.227 23.1068 116.138 21.9134 115.756 21C115.373 20.0571 114.813 19.3794 114.077 18.9669C113.341 18.5249 112.546 18.3039 111.691 18.3039C110.661 18.3039 109.748 18.5838 108.953 19.1436C108.187 19.7035 107.583 20.5138 107.141 21.5746C106.7 22.6354 106.479 23.9319 106.479 25.4641C106.479 27.8803 106.994 29.6335 108.025 30.7238C109.085 31.814 110.425 32.3591 112.045 32.3591C112.84 32.3591 113.503 32.256 114.033 32.0497C114.563 31.814 114.99 31.5341 115.314 31.2099C115.667 30.8564 115.932 30.4733 116.109 30.0608C116.315 29.6483 116.477 29.2505 116.595 28.8674L122.779 30.1934C122.544 31.2836 122.161 32.2707 121.631 33.1547C121.13 34.0387 120.438 34.8048 119.555 35.453C118.7 36.1013 117.655 36.5875 116.418 36.9116C115.211 37.2652 113.768 37.442 112.089 37.442Z" fill="white"/>
<path d="M132.494 37.3978C129.755 37.3978 127.738 36.6759 126.442 35.232C125.146 33.7587 124.498 31.4162 124.498 28.2044V19.0552H121.185L121.318 13.5304H123.703C124.646 13.5009 125.352 13.3536 125.824 13.0884C126.324 12.8232 126.633 12.3223 126.751 11.5856L127.325 8.31492H131.345V13.4862H136.955V19.2762H131.345V27.895C131.345 28.8969 131.581 29.6335 132.052 30.105C132.553 30.5764 133.304 30.8122 134.305 30.8122C134.865 30.8122 135.395 30.7532 135.895 30.6354C136.396 30.5175 136.808 30.3554 137.132 30.1492V36.7348C136.19 37.0295 135.321 37.2063 134.526 37.2652C133.76 37.3536 133.083 37.3978 132.494 37.3978Z" fill="white"/>
<path d="M143.283 37.442C141.988 37.442 140.839 37.1915 139.838 36.6906C138.837 36.1602 138.056 35.4088 137.497 34.4365C136.937 33.4346 136.657 32.2265 136.657 30.8122C136.657 29.4862 136.908 28.3959 137.408 27.5414C137.938 26.6575 138.689 25.965 139.661 25.4641C140.662 24.9337 141.855 24.5064 143.239 24.1823C144.623 23.8287 146.199 23.5193 147.966 23.2541C148.82 23.1068 149.527 22.9742 150.086 22.8564C150.675 22.709 151.117 22.488 151.412 22.1934C151.706 21.8987 151.853 21.4715 151.853 20.9116C151.853 20.175 151.588 19.5414 151.058 19.011C150.528 18.4807 149.674 18.2155 148.496 18.2155C147.671 18.2155 146.921 18.3628 146.243 18.6575C145.595 18.9521 145.036 19.3794 144.565 19.9392C144.093 20.4991 143.74 21.1768 143.504 21.9724L137.232 20.116C137.614 18.8785 138.145 17.8029 138.822 16.8895C139.529 15.9761 140.368 15.2247 141.34 14.6354C142.312 14.0166 143.416 13.5746 144.653 13.3094C145.919 13.0147 147.259 12.8674 148.673 12.8674C151.029 12.8674 152.943 13.2505 154.415 14.0166C155.917 14.7532 157.022 15.9171 157.729 17.5083C158.465 19.07 158.833 21.0884 158.833 23.5635V27.1436C158.833 28.2044 158.848 29.2799 158.877 30.3702C158.936 31.4309 158.995 32.5064 159.054 33.5967C159.142 34.6575 159.245 35.733 159.363 36.8232H153.09C152.972 36.1455 152.855 35.3352 152.737 34.3923C152.619 33.4199 152.531 32.4328 152.472 31.4309H151.632C151.22 32.5506 150.616 33.582 149.821 34.5249C149.056 35.4383 148.113 36.1602 146.994 36.6906C145.905 37.1915 144.668 37.442 143.283 37.442ZM146.508 32.4033C147.038 32.4033 147.568 32.3149 148.098 32.1381C148.658 31.9319 149.188 31.6667 149.689 31.3425C150.189 30.989 150.646 30.5617 151.058 30.0608C151.47 29.5599 151.78 29.0147 151.986 28.4254L151.898 24.9337L152.869 25.1547C152.31 25.5083 151.691 25.7882 151.014 25.9945C150.337 26.2007 149.645 26.3628 148.938 26.4807C148.26 26.5985 147.583 26.7311 146.906 26.8785C146.258 26.9963 145.669 27.1584 145.139 27.3646C144.638 27.5709 144.241 27.8508 143.946 28.2044C143.652 28.558 143.504 29.0442 143.504 29.663C143.504 30.488 143.784 31.151 144.344 31.6519C144.903 32.1529 145.625 32.4033 146.508 32.4033Z" fill="white"/>
<path d="M169.156 37.442C167.212 37.442 165.504 36.9558 164.031 35.9834C162.588 34.9816 161.454 33.5672 160.63 31.7403C159.805 29.884 159.393 27.674 159.393 25.1105C159.393 22.7532 159.746 20.6611 160.453 18.8343C161.16 17.0074 162.205 15.5783 163.59 14.547C165.003 13.4862 166.741 12.9558 168.802 12.9558C170.275 12.9558 171.512 13.221 172.513 13.7514C173.544 14.2818 174.398 15.0773 175.075 16.1381C175.752 17.1989 176.297 18.5396 176.709 20.1602H177.814C177.608 19.1584 177.416 18.2155 177.24 17.3315C177.063 16.418 176.916 15.5783 176.798 14.8122C176.709 14.0166 176.665 13.3241 176.665 12.7348V5H183.822V36.8232H177.99L177.902 29.9282H176.93C176.606 31.6961 176.091 33.14 175.384 34.2597C174.707 35.3499 173.838 36.1602 172.778 36.6906C171.747 37.1915 170.54 37.442 169.156 37.442ZM171.718 31.6961C172.631 31.6961 173.396 31.5046 174.015 31.1215C174.663 30.709 175.178 30.1934 175.561 29.5746C175.944 28.9558 176.223 28.2928 176.4 27.5856C176.577 26.8785 176.665 26.2155 176.665 25.5967V24.6685C176.665 24.1087 176.592 23.5488 176.444 22.9889C176.297 22.4291 176.076 21.884 175.782 21.3536C175.517 20.8232 175.178 20.3517 174.766 19.9392C174.353 19.5267 173.868 19.2026 173.308 18.9669C172.778 18.7311 172.189 18.6133 171.541 18.6133C170.569 18.6133 169.73 18.8785 169.023 19.4088C168.346 19.9392 167.816 20.6906 167.433 21.663C167.079 22.6354 166.903 23.7845 166.903 25.1105C166.903 26.4365 167.094 27.6004 167.477 28.6022C167.86 29.5746 168.419 30.3407 169.156 30.9006C169.892 31.4309 170.746 31.6961 171.718 31.6961Z" fill="white"/>
<path d="M191.261 37.442C189.965 37.442 188.817 37.1915 187.815 36.6906C186.814 36.1602 186.034 35.4088 185.474 34.4365C184.915 33.4346 184.635 32.2265 184.635 30.8122C184.635 29.4862 184.885 28.3959 185.386 27.5414C185.916 26.6575 186.667 25.965 187.639 25.4641C188.64 24.9337 189.833 24.5064 191.217 24.1823C192.601 23.8287 194.177 23.5193 195.944 23.2541C196.798 23.1068 197.504 22.9742 198.064 22.8564C198.653 22.709 199.095 22.488 199.389 22.1934C199.684 21.8987 199.831 21.4715 199.831 20.9116C199.831 20.175 199.566 19.5414 199.036 19.011C198.506 18.4807 197.652 18.2155 196.474 18.2155C195.649 18.2155 194.898 18.3628 194.221 18.6575C193.573 18.9521 193.013 19.3794 192.542 19.9392C192.071 20.4991 191.718 21.1768 191.482 21.9724L185.209 20.116C185.592 18.8785 186.122 17.8029 186.799 16.8895C187.506 15.9761 188.346 15.2247 189.317 14.6354C190.289 14.0166 191.394 13.5746 192.631 13.3094C193.897 13.0147 195.237 12.8674 196.65 12.8674C199.006 12.8674 200.921 13.2505 202.393 14.0166C203.895 14.7532 204.999 15.9171 205.706 17.5083C206.442 19.07 206.811 21.0884 206.811 23.5635V27.1436C206.811 28.2044 206.825 29.2799 206.855 30.3702C206.914 31.4309 206.973 32.5064 207.031 33.5967C207.12 34.6575 207.223 35.733 207.341 36.8232H201.068C200.95 36.1455 200.832 35.3352 200.714 34.3923C200.597 33.4199 200.508 32.4328 200.449 31.4309H199.61C199.198 32.5506 198.594 33.582 197.799 34.5249C197.033 35.4383 196.091 36.1602 194.972 36.6906C193.882 37.1915 192.645 37.442 191.261 37.442ZM194.486 32.4033C195.016 32.4033 195.546 32.3149 196.076 32.1381C196.636 31.9319 197.166 31.6667 197.666 31.3425C198.167 30.989 198.624 30.5617 199.036 30.0608C199.448 29.5599 199.757 29.0147 199.964 28.4254L199.875 24.9337L200.847 25.1547C200.287 25.5083 199.669 25.7882 198.992 25.9945C198.314 26.2007 197.622 26.3628 196.915 26.4807C196.238 26.5985 195.561 26.7311 194.883 26.8785C194.236 26.9963 193.647 27.1584 193.116 27.3646C192.616 27.5709 192.218 27.8508 191.924 28.2044C191.629 28.558 191.482 29.0442 191.482 29.663C191.482 30.488 191.762 31.151 192.321 31.6519C192.881 32.1529 193.602 32.4033 194.486 32.4033Z" fill="white"/>
<path d="M211.622 36.8232L205.967 13.4862H213.389L216.26 31.2541H217.144L220.722 13.4862H229.159L232.87 31.2541H233.797L236.536 13.4862H243.825L238.171 36.8232H228.364L225.139 19.232H224.3L221.296 36.8232H211.622Z" fill="white"/>
<path d="M252.79 45C250.199 45 248.064 44.7937 246.385 44.3812C244.736 43.9982 243.528 43.4088 242.763 42.6133C241.997 41.8471 241.614 40.9042 241.614 39.7845C241.614 38.4291 242.144 37.3241 243.204 36.4696C244.294 35.6151 245.884 35.1289 247.975 35.0111V34.0829C246.356 34.0829 245.104 33.9208 244.22 33.5967C243.366 33.2726 242.939 32.6685 242.939 31.7845C242.939 30.9595 243.366 30.2081 244.22 29.5304C245.074 28.8527 246.488 28.3223 248.461 27.9392V27.011C246.665 26.8637 245.236 26.2744 244.176 25.2431C243.116 24.1823 242.586 22.7974 242.586 21.0884C242.586 19.6446 242.998 18.3333 243.823 17.1547C244.647 15.9466 245.884 14.9889 247.534 14.2818C249.183 13.5451 251.244 13.1768 253.718 13.1768H265.822V18.5249L258.445 17.5525V18.6133C260.359 18.8785 261.728 19.3204 262.553 19.9392C263.377 20.558 263.79 21.4273 263.79 22.547C263.79 23.7256 263.377 24.7716 262.553 25.6851C261.758 26.5985 260.624 27.3204 259.151 27.8508C257.679 28.3518 255.927 28.6022 253.895 28.6022C253.541 28.6022 253.144 28.5875 252.702 28.558C252.29 28.5285 251.509 28.4549 250.361 28.337C249.89 28.7495 249.521 29.1031 249.256 29.3978C248.991 29.663 248.859 29.9134 248.859 30.1492C248.859 30.326 248.932 30.4733 249.08 30.5912C249.227 30.709 249.433 30.7974 249.698 30.8564C249.993 30.8858 250.302 30.9006 250.626 30.9006H257.738C258.327 30.9006 259.093 30.9448 260.035 31.0331C261.007 31.0921 261.964 31.3131 262.906 31.6961C263.878 32.0792 264.688 32.698 265.336 33.5525C266.013 34.407 266.352 35.6298 266.352 37.221C266.352 38.9595 265.866 40.4033 264.894 41.5525C263.922 42.7311 262.435 43.6004 260.432 44.1602C258.43 44.7201 255.883 45 252.79 45ZM253.718 39.3425C255.426 39.3425 256.751 39.2541 257.694 39.0774C258.636 38.9006 259.284 38.6206 259.637 38.2376C260.02 37.8545 260.212 37.3831 260.212 36.8232C260.212 36.2928 260.109 35.8803 259.902 35.5856C259.696 35.2615 259.431 35.0405 259.107 34.9227C258.783 34.8048 258.445 34.7311 258.091 34.7017C257.767 34.6722 257.488 34.6575 257.252 34.6575H251.553C250.464 34.6575 249.654 34.9227 249.124 35.453C248.623 35.954 248.373 36.5433 248.373 37.221C248.373 37.7808 248.55 38.2081 248.903 38.5028C249.256 38.8269 249.816 39.0479 250.582 39.1657C251.377 39.2836 252.422 39.3425 253.718 39.3425ZM253.409 25.0663C254.675 25.0663 255.617 24.7274 256.236 24.0497C256.884 23.372 257.208 22.5175 257.208 21.4862C257.208 20.3665 256.884 19.453 256.236 18.7459C255.588 18.0092 254.66 17.6409 253.453 17.6409C252.245 17.6409 251.303 18.0092 250.626 18.7459C249.948 19.453 249.61 20.3665 249.61 21.4862C249.61 22.1639 249.757 22.7827 250.051 23.3425C250.346 23.8729 250.773 24.3002 251.333 24.6243C251.892 24.919 252.584 25.0663 253.409 25.0663Z" fill="white"/>
<path d="M276.221 37.442C274.661 37.442 273.247 37.2947 271.981 37C270.714 36.7348 269.61 36.337 268.668 35.8066C267.725 35.2762 266.945 34.6427 266.326 33.9061C265.737 33.14 265.325 32.3002 265.089 31.3867L270.39 29.0442C270.597 29.5451 270.95 30.0608 271.451 30.5912C271.981 31.0921 272.673 31.5046 273.527 31.8287C274.41 32.1529 275.47 32.3149 276.707 32.3149C277.885 32.3149 278.798 32.1529 279.446 31.8287C280.123 31.4751 280.462 30.9742 280.462 30.326C280.462 29.8545 280.271 29.4862 279.888 29.221C279.535 28.9263 278.99 28.6759 278.253 28.4696C277.517 28.2339 276.604 28.0129 275.515 27.8066C274.396 27.5709 273.262 27.3057 272.113 27.011C270.965 26.6869 269.89 26.2597 268.888 25.7293C267.887 25.1694 267.077 24.4475 266.459 23.5635C265.87 22.6501 265.575 21.5009 265.575 20.116C265.575 18.6722 265.958 17.4199 266.724 16.3591C267.49 15.2689 268.623 14.4144 270.125 13.7956C271.657 13.1768 273.512 12.8674 275.691 12.8674C277.635 12.8674 279.343 13.1179 280.816 13.6188C282.288 14.1197 283.51 14.8416 284.482 15.7845C285.483 16.698 286.175 17.8029 286.558 19.0994L280.86 21.1326C280.712 20.4843 280.403 19.9245 279.932 19.453C279.49 18.9816 278.916 18.628 278.209 18.3923C277.532 18.1271 276.722 17.9945 275.78 17.9945C274.631 17.9945 273.733 18.1713 273.085 18.5249C272.467 18.8785 272.157 19.3499 272.157 19.9392C272.157 20.4107 272.364 20.8085 272.776 21.1326C273.218 21.4273 273.836 21.6777 274.631 21.884C275.426 22.0902 276.369 22.3112 277.458 22.547C278.607 22.7827 279.741 23.0626 280.86 23.3867C282.008 23.6814 283.039 24.0939 283.952 24.6243C284.894 25.1252 285.631 25.8029 286.161 26.6575C286.72 27.4825 287 28.558 287 29.884C287 31.4457 286.588 32.8011 285.763 33.9503C284.939 35.07 283.716 35.9392 282.097 36.558C280.506 37.1473 278.548 37.442 276.221 37.442Z" fill="white"/>
</svg>
